<?xml version="1.0" standalone="no"?>
<!DOCTYPE svg PUBLIC "-//W3C//DTD SVG 20010904//EN"
 "http://www.w3.org/TR/2001/REC-SVG-20010904/DTD/svg10.dtd">
<svg version="1.0" xmlns="http://www.w3.org/2000/svg"
 width="1200.000000pt" height="1200.000000pt" viewBox="0 0 1200.000000 1200.000000"
 preserveAspectRatio="xMidYMid meet">
<metadata>
Created by potrace 1.14, written by Peter Selinger 2001-2017
</metadata>
<g transform="translate(0.000000,1200.000000) scale(0.100000,-0.100000)"
fill="#000000" stroke="none">
<path d="M5718 11995 c-2 -1 -55 -6 -118 -9 -63 -3 -126 -8 -140 -10 -14 -2
-56 -7 -93 -10 -73 -7 -74 -7 -242 -31 -410 -58 -856 -173 -1255 -325 -30 -11
-64 -25 -75 -29 -11 -5 -56 -24 -100 -41 -174 -69 -485 -222 -669 -329 -49
-28 -93 -51 -97 -51 -5 0 -9 -4 -9 -10 0 -5 -5 -10 -12 -10 -6 0 -26 -11 -44
-25 -18 -14 -36 -25 -39 -25 -18 0 -432 -289 -521 -364 -10 -8 -48 -39 -84
-67 -194 -154 -558 -503 -711 -679 -99 -115 -164 -193 -219 -265 -30 -38 -59
-75 -65 -82 -82 -99 -281 -395 -400 -595 -124 -208 -289 -543 -391 -793 -108
-264 -256 -744 -289 -934 -3 -19 -8 -37 -10 -40 -2 -4 -13 -60 -25 -126 -23
-128 -24 -133 -39 -223 -14 -81 -27 -183 -37 -287 -3 -38 -8 -78 -10 -87 -11
-59 -19 -293 -18 -543 0 -317 7 -474 31 -665 4 -30 8 -62 8 -70 18 -165 59
-397 106 -609 22 -96 42 -177 44 -181 2 -4 6 -20 9 -36 22 -122 197 -625 282
-811 13 -28 24 -55 24 -58 0 -4 45 -98 99 -209 236 -477 496 -872 845 -1279
197 -231 547 -575 722 -709 16 -12 31 -25 34 -28 63 -68 548 -408 730 -512
278 -159 473 -258 685 -348 55 -23 118 -50 140 -60 52 -23 297 -111 400 -143
178 -57 342 -101 550 -148 118 -27 108 -25 248 -49 232 -39 250 -41 397 -55
47 -4 94 -9 105 -11 126 -24 927 -24 1075 0 14 2 59 7 100 11 41 3 102 10 135
15 33 5 80 11 105 14 25 3 54 8 65 10 11 2 54 9 95 16 79 13 287 56 311 64 8
3 25 7 39 10 36 6 212 52 295 76 39 12 77 23 85 25 33 8 310 105 395 138 482
186 983 462 1404 775 120 88 131 97 160 122 9 8 33 27 53 42 20 15 42 33 50
40 7 7 45 40 83 73 115 98 162 143 330 310 223 223 351 369 532 605 432 566
781 1254 973 1915 17 61 38 130 45 155 8 25 16 56 19 70 3 14 15 66 27 115 11
50 23 101 25 115 3 14 7 33 10 43 3 10 7 31 9 48 3 17 7 38 9 48 3 9 8 31 11
49 3 17 7 44 10 60 24 146 43 287 51 377 3 33 7 76 9 95 28 228 27 826 -1
1095 -8 82 -25 228 -30 260 -3 17 -7 44 -9 60 -53 364 -142 730 -260 1075 -43
126 -119 326 -150 395 -225 504 -425 851 -715 1241 -187 252 -328 413 -590
674 -387 387 -823 715 -1320 994 -65 36 -383 195 -471 234 -451 202 -1060 379
-1544 447 -22 3 -51 8 -65 10 -14 3 -50 7 -80 10 -30 3 -71 8 -90 10 -19 2
-67 7 -105 10 -39 4 -90 9 -115 11 -50 6 -706 14 -712 9z"/>
</g>
</svg>
